#define pause_width 12
#define pause_height 12
static char pause_bits[] = {
  0x00, 0x00, 0x00, 0x00, 0xBC, 0x03, 0x9C, 0x03, 0xBC, 0x03, 0x9C, 0x03, 
  0xFC, 0x03, 0x9C, 0x03, 0x9C, 0x03, 0xDC, 0x03, 0x00, 0x00, 0x00, 0x00, 
  };
