#define play_width 13
#define play_height 13
static char play_bits[] = {
  0x00, 0x00, 0x00, 0x00, 0x08, 0x00, 0x3C, 0x00, 0xFC, 0x00, 0xFC, 0x03, 
  0xFC, 0x07, 0xFC, 0x01, 0x7C, 0x00, 0x3C, 0x00, 0x08, 0x00, 0x00, 0x00, 
  0x00, 0x00, };
